<?xml version="1.0" standalone="no"?>
<!DOCTYPE svg PUBLIC "-//W3C//DTD SVG 20010904//EN"
 "http://www.w3.org/TR/2001/REC-SVG-20010904/DTD/svg10.dtd">
<svg version="1.0" xmlns="http://www.w3.org/2000/svg"
 width="81.000000pt" height="74.000000pt" viewBox="0 0 81.000000 74.000000"
 preserveAspectRatio="xMidYMid meet">
<metadata>
Created by potrace 1.10, written by Peter Selinger 2001-2011
</metadata>
<g transform="translate(0.000000,74.000000) scale(0.100000,-0.100000)"
fill="#000000" stroke="none">
<path d="M242 593 c-27 -107 -90 -239 -133 -281 -41 -40 -27 -47 62 -33 87 15
89 14 89 -14 0 -25 -1 -25 -91 -25 -61 0 -89 -4 -87 -11 3 -8 84 -10 266 -10
180 1 262 -1 262 -9 0 -12 -50 -92 -65 -102 -18 -13 -46 -9 -72 12 -33 26 -83
26 -116 0 -14 -11 -34 -20 -45 -20 -10 0 -31 9 -45 20 -14 11 -39 20 -57 20
-18 0 -43 -9 -57 -20 -14 -11 -34 -20 -44 -20 -11 0 -19 -5 -19 -10 0 -23 31
-20 74 5 l45 26 44 -25 c55 -33 72 -32 120 1 l38 27 55 -30 54 -29 50 28 51
29 44 -26 c49 -29 75 -33 75 -11 0 8 -8 15 -19 15 -10 0 -30 9 -44 20 -14 11
-35 20 -46 20 -27 0 -26 7 5 53 14 21 23 41 21 44 -3 2 -87 4 -186 3 l-181 -1
0 30 0 29 118 17 c64 9 123 18 130 21 20 6 14 45 -17 111 -35 73 -93 139 -164
186 -90 59 -89 59 -115 -40z m96 20 c75 -54 125 -110 153 -168 16 -33 29 -65
29 -72 0 -7 -15 -14 -32 -17 -18 -3 -70 -12 -115 -19 l-82 -13 -3 158 c-2 87
1 158 5 158 5 0 25 -12 45 -27z m-78 -177 l0 -114 -37 -7 c-21 -3 -48 -9 -60
-12 -22 -5 -21 -2 12 53 36 59 75 153 75 179 0 8 2 15 5 15 3 0 5 -51 5 -114z"/>
</g>
</svg>
